<?xml version="1.0" standalone="no"?>
<!DOCTYPE svg PUBLIC "-//W3C//DTD SVG 20010904//EN"
 "http://www.w3.org/TR/2001/REC-SVG-20010904/DTD/svg10.dtd">
<svg version="1.0" xmlns="http://www.w3.org/2000/svg"
 width="490.000000pt" height="391.000000pt" viewBox="0 0 490.000000 391.000000"
 preserveAspectRatio="xMidYMid meet">

<g transform="translate(0.000000,391.000000) scale(0.100000,-0.100000)"
fill="#000000" stroke="none">
<path d="M0 1955 l0 -1955 2450 0 2450 0 0 1955 0 1955 -2450 0 -2450 0 0
-1955z m2720 110 l0 -235 -235 0 -235 0 0 235 0 235 235 0 235 0 0 -235z"/>
<path d="M2290 2070 l0 -200 201 0 c131 0 198 3 194 10 -3 6 -24 10 -46 10
-37 0 -39 2 -39 30 0 23 4 30 20 30 11 0 20 -6 20 -13 0 -8 10 -13 22 -12 21
2 22 4 22 171 l1 169 -197 3 -198 2 0 -200z m150 150 c11 -11 20 -24 20 -30 0
-5 -9 -10 -20 -10 -11 0 -20 7 -20 15 0 8 -4 15 -10 15 -5 0 -10 -7 -10 -15 0
-8 -7 -15 -15 -15 -11 0 -15 -11 -15 -40 0 -36 3 -40 24 -40 19 0 25 6 28 27
2 17 10 29 21 31 14 3 17 -4 17 -32 0 -25 -4 -36 -15 -36 -8 0 -15 -7 -15 -15
0 -10 -10 -15 -30 -15 -20 0 -30 5 -30 15 0 8 -7 15 -15 15 -21 0 -21 95 0
104 8 3 15 9 14 13 -6 38 38 46 71 13z m140 5 c0 -8 4 -15 10 -15 25 0 50 -36
50 -72 0 -21 5 -38 10 -38 6 0 10 -9 10 -20 0 -11 -7 -20 -15 -20 -8 0 -15 7
-15 15 0 8 -7 15 -15 15 -11 0 -15 12 -15 45 0 41 -2 45 -25 45 -22 0 -25 -4
-25 -36 0 -23 6 -41 17 -49 9 -7 13 -17 9 -23 -10 -17 -36 -15 -36 3 0 8 -7
15 -15 15 -23 0 -21 104 3 129 21 23 52 27 52 6z m-210 -200 c0 -8 5 -15 10
-15 6 0 13 7 16 15 11 27 34 17 34 -15 0 -28 -2 -30 -40 -30 -44 0 -50 -11
-20 -42 17 -19 20 -19 26 -5 11 29 34 20 34 -13 0 -25 -4 -30 -25 -30 -25 0
-65 31 -65 50 0 6 -7 10 -15 10 -10 0 -15 10 -15 30 0 20 5 30 15 30 8 0 15 7
15 15 0 8 7 15 15 15 8 0 15 -7 15 -15z m150 -15 c0 -28 -3 -30 -35 -30 -24 0
-35 5 -35 15 0 8 7 15 15 15 8 0 15 7 15 15 0 8 9 15 20 15 16 0 20 -7 20 -30z
m88 -3 c3 -25 1 -27 -32 -27 -25 0 -36 4 -36 15 0 8 7 15 15 15 8 0 15 7 15
16 0 28 35 11 38 -19z m52 3 c0 -20 -5 -30 -15 -30 -10 0 -15 10 -15 30 0 20
5 30 15 30 10 0 15 -10 15 -30z m-140 -76 c0 -9 8 -14 18 -13 32 3 42 -1 42
-16 0 -10 -11 -15 -35 -15 -24 0 -35 5 -35 15 0 8 -4 15 -10 15 -5 0 -10 -7
-10 -15 0 -8 -9 -15 -20 -15 -25 0 -26 14 -2 39 21 24 52 27 52 5z"/>
</g>
</svg>
